<svg xmlns="http://www.w3.org/2000/svg" viewBox="0 0 126.65 262.9"><title>facebook</title><g id="Layer_2" data-name="Layer 2"><g id="Layer_1-2" data-name="Layer 1"><path d="M28,262.9q0-50.16,0-100.34,0-12.39,0-24.78c0-1.84,0-1.84-1.79-1.85-8.17,0-16.34,0-24.51,0C.39,136,0,135.61,0,134.31q.06-21.9,0-43.8c0-1.32.4-1.64,1.66-1.63,8.26.06,16.52,0,24.78.06,1.28,0,1.56-.4,1.56-1.59,0-8.52-.06-17,0-25.58,0-8.13.56-16.22,2.59-24.14,2.3-9,6.22-17.07,13.07-23.52C49.89,8.23,57.38,4.75,65.58,2.67A78.34,78.34,0,0,1,84.36.22C97.8.11,111.24.1,124.68,0c1.37,0,1.72.42,1.71,1.76,0,14.51,0,29,0,43.54,0,1.71,0,1.71-1.77,1.71-7.5,0-15-.1-22.5.07a45.79,45.79,0,0,0-9.25,1.2c-4.87,1.13-7.4,4.57-8,9.42a69,69,0,0,0-.5,7.74c-.07,7.32,0,14.64,0,22v1.48h42.31c-.22,2.3-.42,4.41-.64,6.51-.49,4.66-1,9.31-1.5,14l-1.8,16.88c-.3,2.74-.66,5.49-.84,8.24-.07,1.22-.55,1.46-1.64,1.46-9,0-18,0-27.06,0H85.93c-.48,0-1,0-1.6.07V261c0,.62-.06,1.24-.09,1.86Z"/></g></g></svg>