<svg xmlns="http://www.w3.org/2000/svg" viewBox="0 0 484 484"><defs><style>.cls-1{fill:none;stroke:#000;stroke-miterlimit:10;stroke-width:16px;}</style></defs><title>facebook_circle</title><g id="Layer_2" data-name="Layer 2"><g id="Layer_1-2" data-name="Layer 1"><path d="M206.64,373.45q0-50.16,0-100.34V248.33c0-1.84,0-1.85-1.79-1.85-8.17,0-16.35,0-24.52,0-1.28,0-1.67-.35-1.66-1.65q.06-21.9,0-43.81c0-1.31.4-1.63,1.66-1.62,8.26,0,16.53,0,24.79.06,1.27,0,1.56-.4,1.55-1.59q-.06-12.79,0-25.58c0-8.13.56-16.22,2.59-24.14,2.31-9,6.22-17.07,13.08-23.53,6.23-5.87,13.72-9.35,21.93-11.43A78.34,78.34,0,0,1,263,110.77c13.43-.11,26.87-.12,40.31-.22,1.38,0,1.72.42,1.72,1.76-.05,14.51,0,29,0,43.53,0,1.72,0,1.72-1.78,1.72-7.5,0-15-.1-22.5.07a46.4,46.4,0,0,0-9.24,1.19c-4.88,1.14-7.4,4.58-8,9.43A71.49,71.49,0,0,0,263,176c-.07,7.32,0,14.64,0,22v1.48h42.32c-.23,2.3-.43,4.41-.65,6.51-.49,4.65-1,9.3-1.5,14l-1.8,16.87c-.29,2.75-.66,5.49-.83,8.25-.08,1.22-.56,1.46-1.65,1.46-9,0-18,0-27.06,0h-7.23c-.48,0-1,0-1.6.07v1.94q0,61.54,0,123.11c0,.62-.06,1.24-.09,1.86Z"/><circle class="cls-1" cx="242" cy="242" r="234"/></g></g></svg>