<svg xmlns="http://www.w3.org/2000/svg" viewBox="0 0 198.33 198.23"><title>instagram</title><g id="Layer_2" data-name="Layer 2"><g id="Layer_1-2" data-name="Layer 1"><path d="M99.24,0h44.22a52.86,52.86,0,0,1,32.75,11.34c11.15,8.53,18.36,19.68,20.94,33.57a63.37,63.37,0,0,1,1.07,11.33c.08,28.53-.17,57.06.11,85.59.24,24.35-16,46-37.43,52.95A60.79,60.79,0,0,1,143.14,198c-29.31.33-58.62.19-87.93.14-24,0-46.22-16.85-52.68-40A55.46,55.46,0,0,1,.28,143.88C.08,114-.27,84,.34,54.13.8,31.15,12.7,14.87,33.16,4.87A49.1,49.1,0,0,1,55.27,0C69.93.1,84.58,0,99.24,0Zm0,18.73c-14,0-27.93,0-41.89,0a47.63,47.63,0,0,0-8.51.81A37.07,37.07,0,0,0,18.91,55.52Q18.77,99.23,19,143a32.67,32.67,0,0,0,1.38,9.21c5,16.66,19.44,27.23,36.93,27.24,27.84,0,55.68.08,83.52-.09a46.49,46.49,0,0,0,12.5-1.88,36.78,36.78,0,0,0,26.23-35.16c.09-28.88,0-57.76,0-86.64a33.74,33.74,0,0,0-3.91-16C168.48,26.16,157.23,19,141.93,18.81,127.71,18.62,113.48,18.77,99.26,18.76Z"/><path d="M150.91,99.06a51.7,51.7,0,1,1-103.4-.21c0-28.27,23.3-51.46,51.68-51.47A51.78,51.78,0,0,1,150.91,99.06ZM99.26,131.72A32.73,32.73,0,0,0,132,99,33.13,33.13,0,0,0,99.16,66.16c-17.83,0-32.65,14.92-32.7,32.91A32.77,32.77,0,0,0,99.26,131.72Z"/><path d="M163.72,46.76a11.66,11.66,0,0,1-23.31-.21,11.66,11.66,0,1,1,23.31.21Z"/></g></g></svg>