<svg xmlns="http://www.w3.org/2000/svg" viewBox="0 0 484 484"><defs><style>.cls-1{fill:none;stroke:#000;stroke-miterlimit:10;stroke-width:16px;}</style></defs><title>instagram_circle</title><g id="Layer_2" data-name="Layer 2"><g id="Layer_1-2" data-name="Layer 1"><path d="M242.07,142.92H286.3A52.79,52.79,0,0,1,319,154.26c11.15,8.52,18.36,19.67,20.94,33.57a63.28,63.28,0,0,1,1.07,11.33c.09,28.53-.16,57.06.11,85.59.24,24.35-16,46-37.43,52.95A61.33,61.33,0,0,1,286,340.91c-29.31.32-58.62.19-87.94.13-24-.05-46.22-16.85-52.67-40a55.17,55.17,0,0,1-2.25-14.27c-.2-29.92-.55-59.85,0-89.75.46-23,12.36-39.27,32.82-49.27a49,49,0,0,1,22.12-4.86C212.76,143,227.42,142.91,242.07,142.92Zm0,18.73c-14,0-27.93-.05-41.89,0a47.53,47.53,0,0,0-8.5.82,37,37,0,0,0-29.95,35.91q-.15,43.71,0,87.42a33.1,33.1,0,0,0,1.38,9.22c5,16.66,19.44,27.23,36.93,27.23,27.84,0,55.68.08,83.52-.08a46.5,46.5,0,0,0,12.5-1.89,36.78,36.78,0,0,0,26.24-35.16c.08-28.88,0-57.76,0-86.64a33.77,33.77,0,0,0-3.91-16c-7.14-13.46-18.38-20.62-33.69-20.82C270.54,161.5,256.32,161.65,242.09,161.65Z"/><path d="M293.74,241.94A51.7,51.7,0,1,1,242,190.26,51.81,51.81,0,0,1,293.74,241.94Zm-51.65,32.67a32.74,32.74,0,0,0,32.69-32.75A33.12,33.12,0,0,0,242,209c-17.83,0-32.64,14.93-32.7,32.91A32.78,32.78,0,0,0,242.09,274.61Z"/><path d="M306.55,189.65a11.65,11.65,0,0,1-23.3-.22,11.65,11.65,0,1,1,23.3.22Z"/><circle class="cls-1" cx="242" cy="242" r="234"/></g></g></svg>