<svg xmlns="http://www.w3.org/2000/svg" viewBox="0 0 484 484"><defs><style>.cls-1{fill:none;stroke:#000;stroke-miterlimit:10;stroke-width:16px;}</style></defs><title>linkedin_circle</title><g id="Layer_2" data-name="Layer 2"><g id="Layer_1-2" data-name="Layer 1"><path d="M259.18,214.31c6.71-6.06,13.65-10.57,22-12.4a64.21,64.21,0,0,1,37.53,2.83c15.82,6.11,23.78,18.72,26.5,34.87a118.28,118.28,0,0,1,1.5,18.8c.16,26.7.07,53.41.07,80.12,0,6.59-1.67,8.26-8.25,8.26H303.62c-6.73,0-8.09-1.37-8.1-8.26,0-22.32.12-44.65-.11-67a48.67,48.67,0,0,0-2.29-14.06c-2.28-7.19-7.77-10.86-14.67-10.86s-12.37,3.59-14.76,10.74a40.66,40.66,0,0,0-2.17,12.4c-.2,23-.09,46-.1,69,0,6.45-1.53,8-8,8q-17.88,0-35.75,0c-5.79,0-7.35-1.53-7.35-7.27q0-63.48,0-126.95c0-6,1.24-7.18,7.25-7.19q16.44,0,32.87,0C257.83,205.38,258.66,206.16,259.18,214.31Zm-39,1V336.91h31.12v-9.48c-3.3-.35-7-.72-7.11-5-.07-4.48,3.65-5.1,7.1-5.29v-9.34c-3.5-.19-7-.74-7.13-4.79-.18-4.58,3.67-5.08,7.37-5.59,0-9.25.06-18.42,0-27.58a40.06,40.06,0,0,1,5.66-21.15c7-11.94,23.31-15.82,34.72-8,8.64,5.92,12.78,14.75,13,24.9.42,22.05.21,44.1.26,66.16v4.92h31.53a17.59,17.59,0,0,0,.21-1.82c0-26.16.2-52.33-.13-78.49a92.62,92.62,0,0,0-2.87-21.47c-3-11.65-10.75-19.39-22.47-22.25-16.89-4.13-33.26-4.4-46.5,9.65-2.25,2.39-4.11,5.21-6.63,7.25-1.58,1.28-4.45,2.48-6,1.87s-2.78-3.46-3.06-5.48c-.49-3.45-.14-7-.14-10.64Z"/><path d="M142.07,275.79q0-31.64,0-63.28c0-6.09,1.07-7.12,7.24-7.13,12.33,0,24.66,0,37,0,5.3,0,6.88,1.59,6.88,6.87q0,63.69,0,127.39c0,5.29-1.86,7.12-7.22,7.13q-18.5.06-37,0c-5.23,0-6.9-1.65-6.91-6.88Q142,307.84,142.07,275.79Zm9.87-60.63V336.6h31.17v-9.29c-3.56-.09-6.86-.77-7.05-4.84-.23-4.66,3.65-5,7-5.39v-9.26c-3.45-.23-6.84-.82-7.05-4.86-.24-4.68,3.71-5,7-5.54V215.16Z"/><path d="M166.2,137.19a29.47,29.47,0,0,1,29.43,29.12c0,15.74-13.65,29.38-29.38,29.33a29.47,29.47,0,0,1-29.06-29.48A29.12,29.12,0,0,1,166.2,137.19Zm-.09,9.68a19.45,19.45,0,1,0,19.63,19A19.64,19.64,0,0,0,166.11,146.87Z"/><circle class="cls-1" cx="242" cy="242" r="234"/></g></g></svg>