<svg xmlns="http://www.w3.org/2000/svg" viewBox="0 0 209.63 209.62"><title>linkedin</title><g id="Layer_2" data-name="Layer 2"><g id="Layer_1-2" data-name="Layer 1"><path d="M122,77.12c6.71-6.06,13.65-10.57,22-12.4a64.12,64.12,0,0,1,37.53,2.83c15.82,6.11,23.78,18.72,26.5,34.87a117,117,0,0,1,1.51,18.8c.15,26.7.07,53.41.06,80.11,0,6.6-1.67,8.27-8.24,8.27q-17.46,0-34.92,0c-6.74,0-8.1-1.37-8.1-8.26,0-22.33.12-44.65-.11-67a49,49,0,0,0-2.29-14.06c-2.28-7.19-7.78-10.86-14.67-10.86S128.89,113,126.5,120.18a41.07,41.07,0,0,0-2.16,12.41c-.2,23-.09,46-.1,69,0,6.45-1.54,8-8,8q-17.86,0-35.74,0c-5.79,0-7.35-1.53-7.36-7.27q0-63.48,0-127c0-6,1.25-7.18,7.26-7.19q16.44,0,32.87,0C120.64,68.19,121.48,69,122,77.12Zm-39,.95V199.72h31.12v-9.48c-3.29-.35-7-.72-7.1-5-.08-4.47,3.64-5.09,7.09-5.28V170.6c-3.49-.19-7-.74-7.12-4.79-.18-4.58,3.67-5.08,7.36-5.59,0-9.26.07-18.42,0-27.59A40.14,40.14,0,0,1,120,111.49c7-11.94,23.32-15.82,34.73-8,8.64,5.92,12.77,14.75,13,24.9.42,22.05.21,44.1.25,66.16,0,1.6,0,3.2,0,4.92h31.53a15.74,15.74,0,0,0,.22-1.82c0-26.16.2-52.33-.14-78.49a92.77,92.77,0,0,0-2.86-21.48c-3-11.64-10.76-19.39-22.47-22.25-16.9-4.12-33.27-4.4-46.5,9.65-2.25,2.39-4.12,5.22-6.63,7.26-1.59,1.28-4.45,2.48-6,1.87s-2.77-3.46-3.06-5.48c-.49-3.45-.13-7-.13-10.65Z"/><path d="M4.88,138.6q0-31.63,0-63.28c0-6.09,1.07-7.13,7.24-7.13,12.33,0,24.65,0,37,0,5.31,0,6.89,1.59,6.89,6.87q0,63.69,0,127.39c0,5.29-1.85,7.12-7.21,7.13q-18.49.06-37,0c-5.23,0-6.9-1.65-6.9-6.88Q4.86,170.66,4.88,138.6ZM14.76,78V199.41H45.92v-9.29c-3.55-.09-6.85-.77-7.05-4.84-.23-4.66,3.65-5,7-5.39v-9.26c-3.46-.24-6.85-.83-7.06-4.86-.24-4.68,3.71-5,7-5.54V78Z"/><path d="M29,0c16,0,29.43,13.19,29.43,29.12,0,15.74-13.65,29.38-29.38,29.33A29.48,29.48,0,0,1,0,29,29.12,29.12,0,0,1,29,0Zm-.09,9.68A19.64,19.64,0,0,0,9.67,29.1,19.45,19.45,0,1,0,28.93,9.68Z"/></g></g></svg>